# xmcd
# 
# Track frame offsets:
#     150
#     21067
#     45657
#     68970
#     87447
#     108717
#     128887
#     149382
#     165775
#     183982
#     206312
#     233255
#     251042
#     271320
#     286790
#     307780
# 
# Disc length: 4321
# 
# Revision: 8
# Processed by: cddbd v1.5.2PL0 Copyright (c) Steve Scherf et al.
# Submitted via: fre:ac v1.1beta1pre4
# 
DISCID=d110df10
DTITLE=美少女戦士セーラームーン - Memorial Song Box ( Disc．3 )
DYEAR=1997
DGENRE=Anime
TTITLE0=石田よう子/好きと言って
TTITLE1=三石琴乃/I am セーラームーン
TTITLE2=久川綾/同じ涙を分け合って
TTITLE3=富沢美智恵/聖・炎・愛 ～Fire Soul Love～
TTITLE4=古谷 徹/抱きしめていたい
TTITLE5=篠原恵美/STARLIGHTにキスして
TTITLE6=深見梨加/ルート・ヴィーナス
TTITLE7=石田よう子/愛の戦士
TTITLE8=三石琴乃／久川 綾／富沢美智恵／篠原恵美／深見梨加/Moon Revenge
TTITLE9=三石琴乃／富沢美智恵／久川綾／篠原恵美／深見梨加/I am セーラームーン(劇場版)
TTITLE10=朝川ひろこ/Moonlight Destiny
TTITLE11=朝川ひろこ/セーラーチームのテーマ
TTITLE12=プリティキャスト/Morning Moonで会いましょう
TTITLE13=プリティキャスト／森の木児童合唱団/三時の妖精
TTITLE14=好きと言って(オリジナル・カラオケ)
TTITLE15=愛の戦士(オリジナル・カラオケ)
EXTD=
EXTT0=
EXTT1=
EXTT2=
EXTT3=
EXTT4=
EXTT5=
EXTT6=
EXTT7=
EXTT8=
EXTT9=
EXTT10=
EXTT11=
EXTT12=
EXTT13=
EXTT14=
EXTT15=
PLAYORDER=
